<svg xmlns="http://www.w3.org/2000/svg" viewBox="0 0 1000 290" font-family="ui-monospace,'SF Mono',Menlo,Consolas,monospace">
  <defs>
    <linearGradient id="jadegold" x1="0" y1="0" x2="1" y2="1">
      <stop offset="0" stop-color="#0f766e"/><stop offset=".45" stop-color="#0d9488"/><stop offset="1" stop-color="#b45309"/>
    </linearGradient>
    <linearGradient id="edge" x1="0" y1="0" x2="1" y2="0">
      <stop offset="0" stop-color="#0f766e"/><stop offset="1" stop-color="#b45309"/>
    </linearGradient>
    <filter id="glow" x="-30%" y="-30%" width="160%" height="160%">
      <feGaussianBlur stdDeviation="4" result="b"/>
      <feMerge><feMergeNode in="b"/><feMergeNode in="SourceGraphic"/></feMerge>
    </filter>
    <pattern id="grid" width="36" height="36" patternUnits="userSpaceOnUse">
      <path d="M36 0H0V36" fill="none" stroke="#0f766e" stroke-opacity=".05"/>
    </pattern>
  </defs>
  <style>
    .roles text{opacity:0; animation:cyc 12s linear infinite}
    .r2{animation-delay:3s!important} .r3{animation-delay:6s!important} .r4{animation-delay:9s!important}
    @keyframes cyc{0%{opacity:0}3%,22%{opacity:1}26%,100%{opacity:0}}
    .caret{animation:blink 1s steps(1) infinite}
    @keyframes blink{50%{opacity:0}}
    .pulse{animation:pulse 2.4s ease-in-out infinite}
    @keyframes pulse{50%{opacity:.35}}
  </style>
  <rect x="8" y="8" width="984" height="274" rx="14" fill="#ffffff"/>
  <rect x="8" y="8" width="984" height="274" rx="14" fill="url(#grid)"/>
  <rect x="8.5" y="8.5" width="983" height="273" rx="13.5" fill="none" stroke="#d0d7de"/>
  <rect x="9" y="9" width="982" height="2" fill="url(#edge)" opacity=".6"/>

  <g fill="url(#jadegold)" >
    <rect x="52" y="44" width="13" height="13" rx="2.5"/>
    <rect x="116" y="44" width="13" height="13" rx="2.5"/>
    <rect x="52" y="60" width="13" height="13" rx="2.5"/>
    <rect x="100" y="60" width="13" height="13" rx="2.5"/>
    <rect x="52" y="76" width="13" height="13" rx="2.5"/>
    <rect x="84" y="76" width="13" height="13" rx="2.5"/>
    <rect x="52" y="92" width="13" height="13" rx="2.5"/>
    <rect x="68" y="92" width="13" height="13" rx="2.5"/>
    <rect x="52" y="108" width="13" height="13" rx="2.5"/>
    <rect x="84" y="108" width="13" height="13" rx="2.5"/>
    <rect x="52" y="124" width="13" height="13" rx="2.5"/>
    <rect x="100" y="124" width="13" height="13" rx="2.5"/>
    <rect x="52" y="140" width="13" height="13" rx="2.5"/>
    <rect x="116" y="140" width="13" height="13" rx="2.5"/>
    <rect x="164" y="44" width="13" height="13" rx="2.5"/>
    <rect x="228" y="44" width="13" height="13" rx="2.5"/>
    <rect x="164" y="60" width="13" height="13" rx="2.5"/>
    <rect x="228" y="60" width="13" height="13" rx="2.5"/>
    <rect x="180" y="76" width="13" height="13" rx="2.5"/>
    <rect x="212" y="76" width="13" height="13" rx="2.5"/>
    <rect x="196" y="92" width="13" height="13" rx="2.5"/>
    <rect x="196" y="108" width="13" height="13" rx="2.5"/>
    <rect x="196" y="124" width="13" height="13" rx="2.5"/>
    <rect x="196" y="140" width="13" height="13" rx="2.5"/>
    <rect x="276" y="44" width="13" height="13" rx="2.5"/>
    <rect x="276" y="60" width="13" height="13" rx="2.5"/>
    <rect x="276" y="76" width="13" height="13" rx="2.5"/>
    <rect x="276" y="92" width="13" height="13" rx="2.5"/>
    <rect x="276" y="108" width="13" height="13" rx="2.5"/>
    <rect x="276" y="124" width="13" height="13" rx="2.5"/>
    <rect x="276" y="140" width="13" height="13" rx="2.5"/>
    <rect x="292" y="140" width="13" height="13" rx="2.5"/>
    <rect x="308" y="140" width="13" height="13" rx="2.5"/>
    <rect x="324" y="140" width="13" height="13" rx="2.5"/>
    <rect x="340" y="140" width="13" height="13" rx="2.5"/>
    <rect x="388" y="44" width="13" height="13" rx="2.5"/>
    <rect x="404" y="44" width="13" height="13" rx="2.5"/>
    <rect x="420" y="44" width="13" height="13" rx="2.5"/>
    <rect x="436" y="44" width="13" height="13" rx="2.5"/>
    <rect x="452" y="44" width="13" height="13" rx="2.5"/>
    <rect x="420" y="60" width="13" height="13" rx="2.5"/>
    <rect x="420" y="76" width="13" height="13" rx="2.5"/>
    <rect x="420" y="92" width="13" height="13" rx="2.5"/>
    <rect x="420" y="108" width="13" height="13" rx="2.5"/>
    <rect x="420" y="124" width="13" height="13" rx="2.5"/>
    <rect x="388" y="140" width="13" height="13" rx="2.5"/>
    <rect x="404" y="140" width="13" height="13" rx="2.5"/>
    <rect x="420" y="140" width="13" height="13" rx="2.5"/>
    <rect x="436" y="140" width="13" height="13" rx="2.5"/>
    <rect x="452" y="140" width="13" height="13" rx="2.5"/>
    <rect x="500" y="44" width="13" height="13" rx="2.5"/>
    <rect x="564" y="44" width="13" height="13" rx="2.5"/>
    <rect x="500" y="60" width="13" height="13" rx="2.5"/>
    <rect x="516" y="60" width="13" height="13" rx="2.5"/>
    <rect x="564" y="60" width="13" height="13" rx="2.5"/>
    <rect x="500" y="76" width="13" height="13" rx="2.5"/>
    <rect x="532" y="76" width="13" height="13" rx="2.5"/>
    <rect x="564" y="76" width="13" height="13" rx="2.5"/>
    <rect x="500" y="92" width="13" height="13" rx="2.5"/>
    <rect x="548" y="92" width="13" height="13" rx="2.5"/>
    <rect x="564" y="92" width="13" height="13" rx="2.5"/>
    <rect x="500" y="108" width="13" height="13" rx="2.5"/>
    <rect x="564" y="108" width="13" height="13" rx="2.5"/>
    <rect x="500" y="124" width="13" height="13" rx="2.5"/>
    <rect x="564" y="124" width="13" height="13" rx="2.5"/>
    <rect x="500" y="140" width="13" height="13" rx="2.5"/>
    <rect x="564" y="140" width="13" height="13" rx="2.5"/>
  </g>
  <text x="54" y="192" font-size="13" letter-spacing="8" fill="#0f766e" opacity=".92">M O U N T A I N</text>

  <rect x="52" y="212" width="640" height="44" rx="8" fill="#f6f8fa" stroke="#d0d7de"/>
  <text x="70" y="239" font-size="15" textLength="132" lengthAdjust="spacingAndGlyphs"><tspan fill="#b45309">kylin</tspan><tspan fill="#0f766e">@github:~$</tspan></text>
  <g class="roles" font-size="15" fill="#24292f">
    <text class="r1" x="218" y="239" textLength="252" lengthAdjust="spacingAndGlyphs">PageIndex · OpenKB Maintainer</text>
    <text class="r2" x="218" y="239" textLength="262" lengthAdjust="spacingAndGlyphs">Microsoft GraphRAG Contributor</text>
    <text class="r3" x="218" y="239" textLength="158" lengthAdjust="spacingAndGlyphs">SGLang Contributor</text>
    <text class="r4" x="218" y="239" textLength="308" lengthAdjust="spacingAndGlyphs">RAG Architect · Multi-Agent Builder</text>
  </g>
  <rect class="caret" x="545" y="224" width="9" height="20" fill="#0f766e"/>

  <g font-size="13">
    <circle class="pulse" cx="742" cy="233" r="5" fill="#0f766e"/>
    <text x="756" y="238" fill="#57606a">status: <tspan fill="#0f766e">shipping</tspan></text>
    <text x="742" y="80" fill="#57606a" font-size="14">maintainer of</text>
    <text x="742" y="106" fill="#b45309" font-size="18" font-weight="700">PageIndex <tspan fill="#8c959f" font-weight="400">★33.7k</tspan></text>
    <text x="742" y="132" font-size="18" fill="#b45309" font-weight="700">OpenKB <tspan fill="#8c959f" font-weight="400">★2.9k</tspan></text>
    <text x="742" y="162" fill="#57606a" font-size="14">upstream prs</text>
    <text x="742" y="188" font-size="16" fill="#0f766e" font-weight="700">GraphRAG · SGLang</text>
  </g>
</svg>
